<mxfile host="app.diagrams.net" modified="2023-10-06T12:06:52.607Z" agent="Mozilla/5.0 (Windows NT 10.0; Win64; x64) AppleWebKit/537.36 (KHTML, like Gecko) Chrome/116.0.0.0 Safari/537.36 OPR/102.0.0.0 (Edition Yx GX)" version="21.4.0" etag="l6rqPlZo1zjic4N-Hhqv" type="github">
  <diagram name="Страница 1" id="e_NVx9Gy2JmzWBpNc86s">
    <mxGraphModel>
      <root>
        <mxCell id="0" />
        <mxCell id="1" parent="0" />
      </root>
    </mxGraphModel>
  </diagram>
</mxfile>
